<?xml version="1.0" encoding="UTF-8"?>
<svg version="1.1" xmlns="http://www.w3.org/2000/svg" width="30" height="30">
<path d="M0 0 C3.125 1.75 3.125 1.75 5 5 C5.16522292 8.10534356 5.06245954 11.06295194 4.78515625 14.16015625 C5.06047261 17.79933798 6.36845451 18.61468099 9 21 C9 21.99 9 22.98 9 24 C5.29581311 23.36134709 5.29581311 23.36134709 3.73046875 21.44921875 C1.19778895 19.32817088 -0.64483217 19.87528628 -3.875 20.125 C-7.99930997 20.20488978 -9.60626516 20.22715471 -13.25 18.125 C-15.73640579 13.68498966 -15.97785618 9.97076894 -15 5 C-11.44030899 -0.93281834 -6.35314234 -1.22896852 0 0 Z M-10.375 4.625 C-12.48706506 7.71186432 -12.61195145 9.3282913 -12 13 C-10.5 15.5 -10.5 15.5 -8 17 C-4.3282913 17.61195145 -2.71186432 17.48706506 0.375 15.375 C2.48706506 12.28813568 2.61195145 10.6717087 2 7 C0.5 4.5 0.5 4.5 -2 3 C-5.6717087 2.38804855 -7.28813568 2.51293494 -10.375 4.625 Z " fill="#000000" transform="translate(18,3)"/>
</svg>
