<?xml version="1.0" encoding="UTF-8"?>
<svg version="1.1" xmlns="http://www.w3.org/2000/svg" width="30" height="30">
<path d="M0 0 C1.51400391 0.01740234 1.51400391 0.01740234 3.05859375 0.03515625 C4.07050781 0.04417969 5.08242188 0.05320313 6.125 0.0625 C7.29869141 0.07990234 7.29869141 0.07990234 8.49609375 0.09765625 C8.82646168 6.94973175 6.35281566 12.86958996 1.99609375 18.09765625 C-1.65555036 21.01897153 -4.29110162 22.37993573 -9.00390625 22.34765625 C-9.75671875 22.3528125 -10.50953125 22.35796875 -11.28515625 22.36328125 C-13.73357835 22.07016029 -15.37694679 21.31582394 -17.50390625 20.09765625 C-14.50390625 18.09765625 -14.50390625 18.09765625 -12.50390625 17.09765625 C-12.97828125 16.66453125 -13.45265625 16.23140625 -13.94140625 15.78515625 C-16.73871505 12.76406275 -16.61725299 9.82535498 -16.56640625 5.91015625 C-16.55738281 5.00910156 -16.54835938 4.10804687 -16.5390625 3.1796875 C-16.52746094 2.49261719 -16.51585937 1.80554688 -16.50390625 1.09765625 C-15.92125 1.39414063 -15.33859375 1.690625 -14.73828125 1.99609375 C-12.76318724 2.96982891 -10.78130114 3.86491226 -8.75390625 4.72265625 C-7.68140625 5.17640625 -6.60890625 5.63015625 -5.50390625 6.09765625 C-5.19453125 5.29328125 -4.88515625 4.48890625 -4.56640625 3.66015625 C-3.09889387 0.1208617 -3.09889387 0.1208617 0 0 Z " fill="#000000" transform="translate(19.50390625,3.90234375)"/>
</svg>
